<svg width="85" height="85" viewBox="0 0 85 85" fill="none" xmlns="http://www.w3.org/2000/svg">
<circle cx="42.5" cy="42.5" r="42.5" fill="#C9D4D9"/>
<mask id="mask0" mask-type="alpha" maskUnits="userSpaceOnUse" x="0" y="0" width="85" height="85">
<circle cx="42.5" cy="42.5" r="42.5" fill="#2591C2"/>
</mask>
<g mask="url(#mask0)">
<path d="M40 16.0002C28.3978 8.65928 8 10.0021 -11 16.0021C-4.83333 44.0018 8.4 100.001 12 100.001C15.6 100.001 76.1667 88.3346 106 82.5013C103.167 57.5013 96.5 7.10134 92.5 5.50134C87.5 3.50134 64.5 31.5017 40 16.0002Z" fill="#97AEB9"/>
</g>
<mask id="mask1" mask-type="alpha" maskUnits="userSpaceOnUse" x="0" y="0" width="85" height="85">
<circle cx="42.5" cy="42.5" r="42.5" fill="#678A9D"/>
</mask>
<g mask="url(#mask1)">
<path d="M14 35C2.75533 44.3706 -11 40.0005 -19 40.0005C-19 52.167 -11 76.1995 -11 86.9995C-11 100.5 45 129.5 65 128.5C81 127.7 108.333 56.4998 120 21C105.5 36.8333 68.5 44 54.5 33C41.1555 22.5151 26 25 14 35Z" fill="#678A9D"/>
</g>
<mask id="mask2" mask-type="alpha" maskUnits="userSpaceOnUse" x="0" y="0" width="85" height="85">
<circle cx="42.5" cy="42.5" r="42.5" fill="#C9D4D9"/>
</mask>
<g mask="url(#mask2)">
<path d="M40.4999 56.0018C21.9999 44.5018 15.4999 42.0018 -17.0001 56.0018C-19.1668 57.6679 -23.0001 62.5 -21.0001 68.5C-18.5001 76 5.99989 99 30.4999 107C54.9999 115 106 98.0024 112.5 97.0024C119 96.0024 122 26.5024 106 39.5024C89.9999 52.5024 58.9999 67.5018 40.4999 56.0018Z" fill="#3C6A82"/>
</g>
<mask id="mask3" mask-type="alpha" maskUnits="userSpaceOnUse" x="0" y="0" width="85" height="85">
<circle cx="42.5" cy="42.5" r="42.5" fill="#C9D4D9"/>
</mask>
<g mask="url(#mask3)">
<path d="M38.5 71C17 57.5 12 73.4999 -6 80.5008C1.66667 89.3345 18.8 107.502 26 109.502C33.2 111.502 68.3333 122.667 85 127.999C99.8333 102.166 102.9 45.8016 90.5 59.0016C75 75.5016 60 84.5 38.5 71Z" fill="#205572"/>
</g>
</svg>
