<svg width="315" height="137" viewBox="0 0 315 137" fill="none" xmlns="http://www.w3.org/2000/svg">
<rect width="315" height="137" rx="10" fill="white"/>
<circle cx="64.5" cy="71.5" r="42.5" fill="#C9D4D9"/>
<mask id="mask0" mask-type="alpha" maskUnits="userSpaceOnUse" x="22" y="29" width="85" height="85">
<circle cx="64.5" cy="71.5" r="42.5" fill="#2591C2"/>
</mask>
<g mask="url(#mask0)">
<path d="M62 45.0002C50.3978 37.6593 30 39.0021 11 45.0021C17.1667 73.0018 30.4 129.001 34 129.001C37.6 129.001 98.1667 117.335 128 111.501C125.167 86.5013 118.5 36.1013 114.5 34.5013C109.5 32.5013 86.5 60.5017 62 45.0002Z" fill="#97AEB9"/>
</g>
<mask id="mask1" mask-type="alpha" maskUnits="userSpaceOnUse" x="22" y="29" width="85" height="85">
<circle cx="64.5" cy="71.5" r="42.5" fill="#678A9D"/>
</mask>
<g mask="url(#mask1)">
<path d="M36 64C24.7553 73.3706 11 69.0005 3 69.0005C3 81.167 11 105.2 11 116C11 129.5 67 158.5 87 157.5C103 156.7 130.333 85.4998 142 50C127.5 65.8333 90.5 73 76.5 62C63.1555 51.5151 48 54 36 64Z" fill="#678A9D"/>
</g>
<mask id="mask2" mask-type="alpha" maskUnits="userSpaceOnUse" x="22" y="29" width="85" height="85">
<circle cx="64.5" cy="71.5" r="42.5" fill="#C9D4D9"/>
</mask>
<g mask="url(#mask2)">
<path d="M62.4999 85.0018C43.9999 73.5018 37.4999 71.0018 4.99989 85.0018C2.83322 86.6679 -1.00011 91.5 0.999889 97.5C3.49989 105 27.9999 128 52.4999 136C76.9999 144 128 127.002 134.5 126.002C141 125.002 144 55.5024 128 68.5024C112 81.5024 80.9999 96.5018 62.4999 85.0018Z" fill="#3C6A82"/>
</g>
<mask id="mask3" mask-type="alpha" maskUnits="userSpaceOnUse" x="22" y="29" width="85" height="85">
<circle cx="64.5" cy="71.5" r="42.5" fill="#C9D4D9"/>
</mask>
<g mask="url(#mask3)">
<path d="M60.5 100C39 86.5 34 102.5 16 109.501C23.6667 118.335 40.8 136.502 48 138.502C55.2 140.502 90.3333 151.667 107 156.999C121.833 131.166 124.9 74.8016 112.5 88.0016C97 104.502 82 113.5 60.5 100Z" fill="#205572"/>
</g>
<path d="M165.684 35.872L166.892 36.1934C166.992 35.8183 166.912 35.418 166.675 35.1102C166.438 34.8024 166.072 34.622 165.684 34.622V35.872ZM155.804 73V74.25C156.371 74.25 156.866 73.8689 157.012 73.3214L155.804 73ZM151.072 73L149.874 73.3559C150.031 73.8863 150.519 74.25 151.072 74.25V73ZM143.844 48.664L145.042 48.3081C145.04 48.2992 145.037 48.2903 145.034 48.2815L143.844 48.664ZM142.96 45.7L141.743 45.984C141.746 46.0002 141.751 46.0164 141.755 46.0324L142.96 45.7ZM142.284 42.996L141.063 43.2615C141.067 43.2828 141.072 43.3039 141.078 43.3249L142.284 42.996ZM141.972 41.332L143.214 41.194C143.143 40.5529 142.596 40.0713 141.951 40.0822C141.306 40.0931 140.775 40.593 140.726 41.2361L141.972 41.332ZM141.4 44.244L142.616 44.5335L142.618 44.5271L141.4 44.244ZM140.204 48.82L141.404 49.1685L141.407 49.1599L140.204 48.82ZM133.184 73V74.25C133.74 74.25 134.229 73.8826 134.384 73.3485L133.184 73ZM128.452 73L127.244 73.3199C127.389 73.8681 127.885 74.25 128.452 74.25V73ZM118.624 35.872V34.622C118.236 34.622 117.87 34.8021 117.633 35.1095C117.397 35.417 117.316 35.8168 117.416 36.1919L118.624 35.872ZM123.512 35.872L124.723 35.5636C124.582 35.0097 124.084 34.622 123.512 34.622V35.872ZM129.284 58.544L128.073 58.8524L128.074 58.8595L129.284 58.544ZM130.324 63.172L129.095 63.4006C129.097 63.4098 129.099 63.419 129.101 63.4281L130.324 63.172ZM131.052 67.384L129.813 67.5471C129.895 68.1698 130.426 68.635 131.054 68.634C131.682 68.633 132.212 68.166 132.292 67.543L131.052 67.384ZM131.832 62.964L130.611 62.6985L130.611 62.6985L131.832 62.964ZM133.028 58.284L134.227 58.6382L134.228 58.6347L133.028 58.284ZM139.58 35.872V34.622C139.025 34.622 138.536 34.9883 138.38 35.5212L139.58 35.872ZM144.416 35.872L145.613 35.5108C145.453 34.9831 144.967 34.622 144.416 34.622V35.872ZM151.228 58.44L150.031 58.8012L150.032 58.804L151.228 58.44ZM153.256 67.384L152.019 67.5659C152.111 68.1884 152.651 68.6458 153.28 68.6338C153.909 68.6217 154.431 68.1439 154.499 67.5184L153.256 67.384ZM153.932 63.224L152.713 62.947C152.712 62.9539 152.71 62.9609 152.709 62.9679L153.932 63.224ZM155.076 58.492L156.287 58.8012L156.288 58.7984L155.076 58.492ZM160.796 35.872V34.622C160.224 34.622 159.724 35.0107 159.584 35.5656L160.796 35.872ZM164.476 35.5506L154.596 72.6786L157.012 73.3214L166.892 36.1934L164.476 35.5506ZM155.804 71.75H151.072V74.25H155.804V71.75ZM152.27 72.6441L145.042 48.3081L142.646 49.0199L149.874 73.3559L152.27 72.6441ZM145.034 48.2815C144.727 47.3278 144.438 46.3565 144.165 45.3676L141.755 46.0324C142.037 47.0542 142.337 48.0589 142.654 49.0465L145.034 48.2815ZM144.177 45.416C143.932 44.3658 143.703 43.4488 143.49 42.6671L141.078 43.3249C141.281 44.0686 141.502 44.9542 141.743 45.984L144.177 45.416ZM143.505 42.7305C143.331 41.9294 143.241 41.4335 143.214 41.194L140.73 41.47C140.772 41.8545 140.89 42.4679 141.063 43.2615L143.505 42.7305ZM140.726 41.2361C140.7 41.5736 140.535 42.4463 140.182 43.9609L142.618 44.5271C142.959 43.0604 143.175 41.9917 143.218 41.4279L140.726 41.2361ZM140.184 43.9545C139.842 45.3919 139.448 46.9004 139.001 48.4801L141.407 49.1599C141.862 47.5503 142.265 46.0081 142.616 44.5335L140.184 43.9545ZM139.004 48.4715L131.984 72.6515L134.384 73.3485L141.404 49.1685L139.004 48.4715ZM133.184 71.75H128.452V74.25H133.184V71.75ZM129.66 72.6801L119.832 35.5521L117.416 36.1919L127.244 73.3199L129.66 72.6801ZM118.624 37.122H123.512V34.622H118.624V37.122ZM122.301 36.1804L128.073 58.8524L130.495 58.2356L124.723 35.5636L122.301 36.1804ZM128.074 58.8595C128.484 60.4279 128.824 61.9415 129.095 63.4006L131.553 62.9434C131.27 61.4211 130.916 59.8494 130.494 58.2285L128.074 58.8595ZM129.101 63.4281C129.407 64.8923 129.644 66.265 129.813 67.5471L132.291 67.2209C132.113 65.8683 131.865 64.433 131.547 62.9159L129.101 63.4281ZM132.292 67.543C132.46 66.2329 132.713 64.7956 133.053 63.2295L130.611 62.6985C130.258 64.3218 129.991 65.8311 129.812 67.225L132.292 67.543ZM133.053 63.2295C133.394 61.6639 133.785 60.1335 134.227 58.6382L131.829 57.9298C131.37 59.4852 130.964 61.0748 130.611 62.6985L133.053 63.2295ZM134.228 58.6347L140.78 36.2227L138.38 35.5212L131.828 57.9333L134.228 58.6347ZM139.58 37.122H144.416V34.622H139.58V37.122ZM143.219 36.2332L150.031 58.8012L152.425 58.0788L145.613 35.5108L143.219 36.2332ZM150.032 58.804C150.508 60.3669 150.915 61.9287 151.255 63.4895L153.697 62.9585C153.343 61.33 152.919 59.7025 152.424 58.076L150.032 58.804ZM151.255 63.4895C151.597 65.0658 151.851 66.4233 152.019 67.5659L154.493 67.2021C154.314 65.9873 154.048 64.5715 153.697 62.9585L151.255 63.4895ZM154.499 67.5184C154.632 66.283 154.85 64.9375 155.155 63.4801L152.709 62.9679C152.39 64.4919 152.157 65.9196 152.013 67.2496L154.499 67.5184ZM155.151 63.501C155.495 61.9872 155.874 60.4207 156.287 58.8012L153.865 58.1828C153.446 59.822 153.062 61.4101 152.713 62.947L155.151 63.501ZM156.288 58.7984L162.008 36.1784L159.584 35.5656L153.864 58.1856L156.288 58.7984ZM160.796 37.122H165.684V34.622H160.796V37.122ZM193.824 69.724L192.909 68.872L192.903 68.8788L193.824 69.724ZM177.756 71.856L177.113 72.9279C177.121 72.9324 177.128 72.9369 177.136 72.9413L177.756 71.856ZM173.232 66.916L172.118 67.4821L172.121 67.4893L173.232 66.916ZM175 48.352L174.085 47.5004L174.079 47.5073L175 48.352ZM191.172 46.324L190.538 47.4009C190.542 47.4037 190.547 47.4065 190.552 47.4093L191.172 46.324ZM195.696 51.212L194.578 51.771C194.582 51.7783 194.585 51.7855 194.589 51.7927L195.696 51.212ZM178.224 66.864L177.181 67.5531C177.186 67.5603 177.191 67.5674 177.196 67.5745L178.224 66.864ZM190.652 66.864L191.681 67.5746L191.686 67.5659L190.652 66.864ZM190.652 51.264L191.674 50.5446L191.674 50.5446L190.652 51.264ZM178.224 51.264L179.255 51.9705L179.255 51.9705L178.224 51.264ZM196.11 59.012C196.11 63.4141 194.988 66.641 192.909 68.872L194.739 70.576C197.375 67.7457 198.61 63.8312 198.61 59.012H196.11ZM192.903 68.8788C190.856 71.1093 188.058 72.27 184.36 72.27V74.77C188.635 74.77 192.147 73.4 194.745 70.5692L192.903 68.8788ZM184.36 72.27C182.094 72.27 180.11 71.7615 178.376 70.7707L177.136 72.9413C179.285 74.1692 181.704 74.77 184.36 74.77V72.27ZM178.399 70.7841C176.709 69.7701 175.355 68.3044 174.343 66.3427L172.121 67.4893C173.328 69.8263 174.99 71.6539 177.113 72.9279L178.399 70.7841ZM174.347 66.3499C173.346 64.3809 172.818 61.9504 172.818 59.012H170.318C170.318 62.2442 170.899 65.0831 172.118 67.4821L174.347 66.3499ZM172.818 59.012C172.818 54.5996 173.911 51.3897 175.922 49.1967L174.079 47.5073C171.513 50.3063 170.318 54.2031 170.318 59.012H172.818ZM175.915 49.2035C177.959 47.0074 180.774 45.858 184.516 45.858V43.358C180.215 43.358 176.687 44.7046 174.085 47.5005L175.915 49.2035ZM184.516 45.858C186.814 45.858 188.809 46.3821 190.538 47.4009L191.807 45.2471C189.653 43.9779 187.211 43.358 184.516 43.358V45.858ZM190.552 47.4093C192.263 48.3869 193.605 49.8251 194.578 51.771L196.814 50.653C195.638 48.3002 193.964 46.4797 191.792 45.2387L190.552 47.4093ZM194.589 51.7927C195.581 53.6836 196.11 56.0717 196.11 59.012H198.61C198.61 55.7817 198.03 52.9698 196.803 50.6313L194.589 51.7927ZM175.05 59.012C175.05 62.4528 175.718 65.3388 177.181 67.5531L179.267 66.1749C178.165 64.5065 177.55 62.1579 177.55 59.012H175.05ZM177.196 67.5745C178.801 69.8974 181.316 70.974 184.464 70.974V68.474C181.927 68.474 180.282 67.644 179.253 66.1535L177.196 67.5745ZM184.464 70.974C187.584 70.974 190.079 69.8929 191.681 67.5745L189.624 66.1535C188.591 67.6484 186.96 68.474 184.464 68.474V70.974ZM191.686 67.5659C193.191 65.3493 193.878 62.4582 193.878 59.012H191.378C191.378 62.1525 190.748 64.496 189.618 66.1621L191.686 67.5659ZM193.878 59.012C193.878 55.5695 193.192 52.7012 191.674 50.5446L189.63 51.9834C190.747 53.5708 191.378 55.8678 191.378 59.012H193.878ZM191.674 50.5446C190.066 48.2587 187.551 47.206 184.412 47.206V49.706C186.959 49.706 188.604 50.5253 189.63 51.9834L191.674 50.5446ZM184.412 47.206C181.275 47.206 178.768 48.2588 177.193 50.5575L179.255 51.9705C180.246 50.5252 181.864 49.706 184.412 49.706V47.206ZM177.193 50.5575C175.717 52.7119 175.05 55.5749 175.05 59.012H177.55C177.55 55.8624 178.166 53.5601 179.255 51.9705L177.193 50.5575ZM222.657 44.712L222.51 45.9534C222.535 45.9563 222.559 45.9584 222.583 45.9598L222.657 44.712ZM224.269 44.92L225.507 45.0882C225.595 44.4407 225.169 43.8347 224.53 43.6977L224.269 44.92ZM223.697 49.132L223.415 50.35C223.758 50.429 224.118 50.3602 224.407 50.1605C224.696 49.9607 224.888 49.6485 224.935 49.3002L223.697 49.132ZM216.677 49.964L217.328 51.0306C217.335 51.0263 217.342 51.0219 217.349 51.0174L216.677 49.964ZM213.661 53.24L212.559 52.649L212.554 52.659L213.661 53.24ZM212.569 73V74.25C213.259 74.25 213.819 73.6904 213.819 73H212.569ZM207.993 73H206.743C206.743 73.6904 207.302 74.25 207.993 74.25V73ZM207.993 45.128V43.878C207.302 43.878 206.743 44.4376 206.743 45.128H207.993ZM211.737 45.128L212.98 45.0011C212.915 44.3632 212.378 43.878 211.737 43.878V45.128ZM212.257 50.224L211.013 50.3509C211.078 50.9888 211.615 51.474 212.257 51.474V50.224ZM212.465 50.224V51.474C212.914 51.474 213.329 51.2325 213.551 50.8415L212.465 50.224ZM215.897 46.272L215.139 45.2777C215.135 45.2807 215.131 45.2836 215.127 45.2866L215.897 46.272ZM220.993 45.858C221.457 45.858 221.963 45.889 222.51 45.9534L222.803 43.4706C222.171 43.3963 221.568 43.358 220.993 43.358V45.858ZM222.583 45.9598C223.121 45.9915 223.594 46.0538 224.007 46.1423L224.53 43.6977C223.973 43.5782 223.371 43.5019 222.73 43.4642L222.583 45.9598ZM223.03 44.7518L222.458 48.9638L224.935 49.3002L225.507 45.0882L223.03 44.7518ZM223.978 47.914C223.478 47.7987 222.932 47.7052 222.344 47.6317L222.033 50.1123C222.554 50.1774 223.014 50.2573 223.415 50.35L223.978 47.914ZM222.344 47.6317C221.749 47.5573 221.194 47.518 220.681 47.518V50.018C221.069 50.018 221.519 50.048 222.033 50.1123L222.344 47.6317ZM220.681 47.518C219.01 47.518 217.444 47.9906 216.004 48.9106L217.349 51.0174C218.405 50.3428 219.508 50.018 220.681 50.018V47.518ZM216.025 48.8974C214.568 49.7875 213.416 51.0527 212.559 52.649L214.762 53.831C215.431 52.5847 216.289 51.6658 217.328 51.0306L216.025 48.8974ZM212.554 52.659C211.715 54.2567 211.319 56.0929 211.319 58.128H213.819C213.819 56.4191 214.15 54.9966 214.767 53.821L212.554 52.659ZM211.319 58.128V73H213.819V58.128H211.319ZM212.569 71.75H207.993V74.25H212.569V71.75ZM209.243 73V45.128H206.743V73H209.243ZM207.993 46.378H211.737V43.878H207.993V46.378ZM210.493 45.2549L211.013 50.3509L213.5 50.0971L212.98 45.0011L210.493 45.2549ZM212.257 51.474H212.465V48.974H212.257V51.474ZM213.551 50.8415C214.335 49.4624 215.37 48.2689 216.666 47.2574L215.127 45.2866C213.581 46.4937 212.327 47.9349 211.378 49.6065L213.551 50.8415ZM216.654 47.2663C217.879 46.3333 219.307 45.858 220.993 45.858V43.358C218.795 43.358 216.826 43.9921 215.139 45.2777L216.654 47.2663ZM237.429 73V74.25C238.119 74.25 238.679 73.6904 238.679 73H237.429ZM232.853 73H231.603C231.603 73.6904 232.163 74.25 232.853 74.25V73ZM232.853 33.48V32.23C232.163 32.23 231.603 32.7896 231.603 33.48H232.853ZM237.429 33.48H238.679C238.679 32.7896 238.119 32.23 237.429 32.23V33.48ZM237.429 71.75H232.853V74.25H237.429V71.75ZM234.103 73V33.48H231.603V73H234.103ZM232.853 34.73H237.429V32.23H232.853V34.73ZM236.179 33.48V73H238.679V33.48H236.179ZM251.199 69.932L250.25 70.7455L250.256 70.7522L251.199 69.932ZM251.199 48.3L250.251 47.4854L250.25 47.4865L251.199 48.3ZM264.823 45.804L264.188 46.8808L264.2 46.8876L264.823 45.804ZM268.203 48.716L267.207 49.4708C267.443 49.7827 267.812 49.966 268.203 49.966V48.716ZM268.515 48.716V49.966C268.88 49.966 269.226 49.8067 269.464 49.5299C269.701 49.2531 269.806 48.8864 269.751 48.5259L268.515 48.716ZM268.307 46.74L267.061 46.8359L267.061 46.8397L268.307 46.74ZM268.203 33.48V32.23C267.513 32.23 266.953 32.7896 266.953 33.48H268.203ZM272.779 33.48H274.029C274.029 32.7896 273.47 32.23 272.779 32.23V33.48ZM272.779 73V74.25C273.47 74.25 274.029 73.6904 274.029 73H272.779ZM269.087 73L267.857 73.2221C267.965 73.8172 268.483 74.25 269.087 74.25V73ZM268.411 69.256L269.641 69.0339C269.534 68.4388 269.016 68.006 268.411 68.006V69.256ZM268.203 69.256V68.006C267.797 68.006 267.416 68.2033 267.182 68.5351L268.203 69.256ZM264.875 72.272L265.518 73.3439L264.875 72.272ZM266.435 67.332L265.433 66.5854L265.43 66.589L266.435 67.332ZM266.539 51.212L265.473 51.8638L265.478 51.8727L266.539 51.212ZM254.631 51.368L253.574 50.7005L253.571 50.7055L254.631 51.368ZM254.631 66.968L253.588 67.6568C253.591 67.6614 253.594 67.6659 253.597 67.6704L254.631 66.968ZM259.519 72.27C256.376 72.27 253.961 71.2032 252.142 69.1118L250.256 70.7522C252.597 73.4448 255.729 74.77 259.519 74.77V72.27ZM252.148 69.1185C250.339 67.0076 249.329 63.745 249.329 59.116H246.829C246.829 64.055 247.9 68.0031 250.25 70.7455L252.148 69.1185ZM249.329 59.116C249.329 54.487 250.339 51.2244 252.148 49.1135L250.25 47.4865C247.9 50.2289 246.829 54.177 246.829 59.116H249.329ZM252.147 49.1146C254.007 46.9504 256.441 45.858 259.571 45.858V43.358C255.768 43.358 252.621 44.7269 250.251 47.4854L252.147 49.1146ZM259.571 45.858C261.576 45.858 263.087 46.2312 264.188 46.8807L265.458 44.7273C263.856 43.7821 261.865 43.358 259.571 43.358V45.858ZM264.2 46.8876C265.458 47.6111 266.452 48.4748 267.207 49.4708L269.2 47.9612C268.221 46.6692 266.962 45.5916 265.446 44.7204L264.2 46.8876ZM268.203 49.966H268.515V47.466H268.203V49.966ZM269.751 48.5259C269.688 48.1211 269.622 47.4986 269.553 46.6403L267.061 46.8397C267.131 47.7148 267.203 48.4096 267.28 48.9061L269.751 48.5259ZM269.554 46.6441C269.485 45.7552 269.453 45.0811 269.453 44.608H266.953C266.953 45.1749 266.991 45.9222 267.061 46.8359L269.554 46.6441ZM269.453 44.608V33.48H266.953V44.608H269.453ZM268.203 34.73H272.779V32.23H268.203V34.73ZM271.529 33.48V73H274.029V33.48H271.529ZM272.779 71.75H269.087V74.25H272.779V71.75ZM270.317 72.7779L269.641 69.0339L267.181 69.4781L267.857 73.2221L270.317 72.7779ZM268.411 68.006H268.203V70.506H268.411V68.006ZM267.182 68.5351C266.462 69.5555 265.488 70.4467 264.232 71.2001L265.518 73.3439C267.036 72.4333 268.281 71.3138 269.224 69.9769L267.182 68.5351ZM264.232 71.2001C263.096 71.8816 261.553 72.27 259.519 72.27V74.77C261.853 74.77 263.881 74.3264 265.518 73.3439L264.232 71.2001ZM260.247 70.974C263.389 70.974 265.928 70.1215 267.44 68.075L265.43 66.589C264.585 67.7319 262.998 68.474 260.247 68.474V70.974ZM267.438 68.0786C268.883 66.138 269.505 63.3775 269.505 60H267.005C267.005 63.1399 266.414 65.2673 265.433 66.5854L267.438 68.0786ZM269.505 60V59.168H267.005V60H269.505ZM269.505 59.168C269.505 55.5953 268.921 52.6728 267.6 50.5513L265.478 51.8727C266.445 53.4259 267.005 55.8073 267.005 59.168H269.505ZM267.606 50.5602C266.149 48.1758 263.521 47.154 260.195 47.154V49.654C263.04 49.654 264.642 50.5042 265.473 51.8638L267.606 50.5602ZM260.195 47.154C257.333 47.154 255.066 48.3392 253.574 50.7005L255.688 52.0355C256.693 50.4448 258.135 49.654 260.195 49.654V47.154ZM253.571 50.7055C252.191 52.9144 251.561 55.7897 251.561 59.22H254.061C254.061 56.0636 254.645 53.7042 255.691 52.0305L253.571 50.7055ZM251.561 59.22C251.561 62.6758 252.187 65.5355 253.588 67.6568L255.674 66.2792C254.649 64.7259 254.061 62.4202 254.061 59.22H251.561ZM253.597 67.6704C255.11 69.897 257.397 70.974 260.247 70.974V68.474C258.105 68.474 256.649 67.7137 255.665 66.2656L253.597 67.6704Z" fill="#4EB0B6"/>
<path d="M150.938 92.7812C150.469 92.0312 149.859 91.5156 149.109 91.2344C148.359 90.8594 147.609 90.6719 146.859 90.6719C145.453 90.6719 144.328 91.3281 143.484 92.6406C142.734 93.9531 142.359 95.6875 142.359 97.8438C142.359 100.094 142.734 101.781 143.484 102.906C144.234 103.938 145.312 104.453 146.719 104.453C147.75 104.453 148.594 104.125 149.25 103.469C150 102.812 150.562 101.828 150.938 100.516V92.7812ZM146.297 105.578C144.609 105.578 143.156 104.922 141.938 103.609C140.719 102.203 140.109 100.188 140.109 97.5625C140.109 95.125 140.766 93.2031 142.078 91.7969C143.391 90.2969 144.938 89.5469 146.719 89.5469C147.469 89.5469 148.219 89.7344 148.969 90.1094C149.812 90.3906 150.469 90.8594 150.938 91.5156V83.9219C150.938 83.3594 150.844 82.9375 150.656 82.6562C150.469 82.375 150.141 82.2344 149.672 82.2344H148.547V81.3906H150.094C150.562 81.3906 151.031 81.2969 151.5 81.1094C151.969 80.9219 152.438 80.6406 152.906 80.2656V102.484C152.906 102.953 153 103.281 153.188 103.469C153.375 103.656 153.656 103.75 154.031 103.75H155.016V104.594H154.172C153.797 104.594 153.328 104.688 152.766 104.875C152.297 104.969 151.781 105.156 151.219 105.438H150.938V102.766C150.469 103.609 149.812 104.312 148.969 104.875C148.219 105.344 147.328 105.578 146.297 105.578ZM165.512 94.0469C166.449 92.5469 167.434 91.4219 168.465 90.6719C169.59 89.8281 170.715 89.4062 171.84 89.4062C172.778 89.4062 173.481 89.6406 173.949 90.1094C174.512 90.4844 174.793 90.9531 174.793 91.5156C174.793 91.9844 174.653 92.3594 174.371 92.6406C174.184 92.9219 173.856 93.0625 173.387 93.0625C172.918 93.0625 172.543 92.9219 172.262 92.6406C172.074 92.3594 172.028 91.9844 172.121 91.5156C172.121 91.2344 172.074 91 171.981 90.8125C171.887 90.625 171.606 90.5312 171.137 90.5312C170.387 90.5312 169.449 91 168.324 91.9375C167.293 92.875 166.356 94.1875 165.512 95.875V103.469C165.512 103.844 165.606 104.125 165.793 104.312C166.074 104.5 166.403 104.594 166.778 104.594H169.871V105.438H159.465V104.594H162.278C162.746 104.594 163.074 104.5 163.262 104.312C163.449 104.125 163.543 103.844 163.543 103.469V91.7969C163.543 91.4219 163.449 91.1406 163.262 90.9531C163.074 90.6719 162.746 90.5312 162.278 90.5312H159.606V89.6875H160.731C161.387 89.6875 162.137 89.6406 162.981 89.5469C163.918 89.3594 164.621 89.1719 165.09 88.9844H165.512V94.0469ZM186.696 91.7969C186.696 91.4219 186.602 91.1406 186.414 90.9531C186.227 90.6719 185.899 90.5312 185.43 90.5312H182.477V89.6875H183.883C184.727 89.6875 185.524 89.6406 186.274 89.5469C187.024 89.3594 187.727 89.0781 188.383 88.7031H188.664V103.469C188.664 103.844 188.758 104.125 188.946 104.312C189.227 104.5 189.555 104.594 189.93 104.594H192.883V105.438H182.477V104.594H185.43C185.899 104.594 186.227 104.5 186.414 104.312C186.602 104.125 186.696 103.844 186.696 103.469V91.7969ZM187.821 81.1094C188.289 81.1094 188.711 81.2969 189.086 81.6719C189.461 81.9531 189.649 82.3281 189.649 82.7969C189.649 83.2656 189.461 83.6875 189.086 84.0625C188.711 84.4375 188.289 84.625 187.821 84.625C187.352 84.625 186.93 84.4375 186.555 84.0625C186.18 83.6875 185.993 83.2656 185.993 82.7969C185.993 82.3281 186.18 81.9531 186.555 81.6719C186.93 81.2969 187.352 81.1094 187.821 81.1094ZM208.161 105.578H207.317L202.536 91.7969C202.442 91.4219 202.254 91.1406 201.973 90.9531C201.692 90.6719 201.364 90.5312 200.989 90.5312H200.286V89.6875H206.333V90.5312H205.77C205.208 90.5312 204.879 90.625 204.786 90.8125C204.692 91 204.645 91.1875 204.645 91.375C204.645 91.75 204.692 92.0781 204.786 92.3594L208.161 102.203H208.442L211.817 92.5C212.004 92.0312 212.098 91.7031 212.098 91.5156C212.098 91.4219 212.004 91.2344 211.817 90.9531C211.629 90.6719 211.254 90.5312 210.692 90.5312H210.411V89.6875H215.473V90.5312H215.192C214.629 90.5312 214.161 90.7188 213.786 91.0938C213.504 91.375 213.223 91.8438 212.942 92.5L208.161 105.578ZM232.86 96.7188C232.954 94.6562 232.579 93.1094 231.735 92.0781C230.985 90.9531 229.954 90.3906 228.641 90.3906C227.235 90.3906 226.063 90.9531 225.126 92.0781C224.282 93.2031 223.86 94.75 223.86 96.7188H232.86ZM223.86 97.5625C223.86 100.094 224.329 101.922 225.266 103.047C226.298 104.078 227.61 104.594 229.204 104.594C230.423 104.594 231.454 104.266 232.298 103.609C233.141 102.859 233.751 101.969 234.126 100.938L234.829 101.219C234.548 102.25 233.891 103.281 232.86 104.312C231.923 105.25 230.61 105.719 228.923 105.719C226.766 105.719 224.985 105.016 223.579 103.609C222.266 102.203 221.61 100.188 221.61 97.5625C221.61 95.2188 222.266 93.2969 223.579 91.7969C224.985 90.2031 226.673 89.4062 228.641 89.4062C230.423 89.4062 231.969 90.0156 233.282 91.2344C234.594 92.4531 235.251 94.5625 235.251 97.5625H223.86ZM240.825 105.438V104.594H241.528C241.997 104.594 242.325 104.5 242.512 104.312C242.7 104.125 242.794 103.844 242.794 103.469V91.375C242.794 91.0938 242.747 90.9062 242.653 90.8125C242.559 90.625 242.372 90.5312 242.091 90.5312H240.966V89.6875H241.95C242.419 89.6875 242.841 89.6406 243.216 89.5469C243.684 89.4531 244.106 89.2656 244.481 88.9844H244.762V92.2188C245.606 91.2812 246.45 90.5781 247.294 90.1094C248.137 89.6406 249.028 89.4062 249.966 89.4062C251.559 89.4062 252.731 89.8281 253.481 90.6719C254.231 91.5156 254.606 92.7812 254.606 94.4688V103.469C254.606 103.844 254.7 104.125 254.887 104.312C255.169 104.5 255.497 104.594 255.872 104.594H256.575V105.438H250.669V104.594H251.372C251.841 104.594 252.169 104.5 252.356 104.312C252.544 104.125 252.637 103.844 252.637 103.469V94.0469C252.637 92.9219 252.403 92.0781 251.934 91.5156C251.466 90.8594 250.762 90.5312 249.825 90.5312C248.981 90.5312 248.091 90.8125 247.153 91.375C246.309 91.9375 245.512 92.7344 244.762 93.7656V103.469C244.762 103.844 244.856 104.125 245.044 104.312C245.325 104.5 245.653 104.594 246.028 104.594H246.731V105.438H240.825Z" fill="black"/>
</svg>
