<?xml version="1.0" encoding="UTF-8" standalone="no"?>
<!-- Created with Inkscape (http://www.inkscape.org/) -->
<svg
   xmlns:dc="http://purl.org/dc/elements/1.1/"
   xmlns:cc="http://web.resource.org/cc/"
   xmlns:rdf="http://www.w3.org/1999/02/22-rdf-syntax-ns#"
   xmlns:svg="http://www.w3.org/2000/svg"
   xmlns="http://www.w3.org/2000/svg"
   xmlns:sodipodi="http://sodipodi.sourceforge.net/DTD/sodipodi-0.dtd"
   xmlns:inkscape="http://www.inkscape.org/namespaces/inkscape"
   height="309"
   width="269"
   id="svg2"
   sodipodi:version="0.32"
   inkscape:version="0.45.1"
   version="1.0"
   sodipodi:docbase="G:\"
   sodipodi:docname="5fing.svg"
   inkscape:output_extension="org.inkscape.output.svg.inkscape">
  <defs
     id="defs4" />
  <sodipodi:namedview
     id="base"
     pagecolor="#ffffff"
     bordercolor="#666666"
     borderopacity="1.0"
     inkscape:pageopacity="0.0"
     inkscape:pageshadow="2"
     inkscape:cx="206.50045"
     inkscape:cy="223.20067"
     inkscape:zoom="2.4606295"
     inkscape:document-units="px"
     inkscape:current-layer="layer1"
     width="269px"
     height="312px"
     inkscape:window-width="1152"
     inkscape:window-height="817"
     inkscape:window-x="-4"
     inkscape:window-y="-4" />
  <metadata
     id="metadata7">
    <rdf:RDF>
      <cc:Work
         rdf:about="">
        <dc:format>image/svg+xml</dc:format>
        <dc:type
           rdf:resource="http://purl.org/dc/dcmitype/StillImage" />
      </cc:Work>
    </rdf:RDF>
  </metadata>
  <g
     inkscape:groupmode="layer"
     inkscape:label="Warstwa 1"
     id="layer1">
    <path
       style="fill:none;fill-rule:evenodd;stroke:#000000;stroke-width:7.5;stroke-linecap:butt;stroke-linejoin:miter;stroke-miterlimit:4;stroke-dasharray:none;stroke-opacity:1"
       d="M 155.66475,205.40012 C 162.29804,186.8186 184.02023,183.2838 200.1093,176.71493 C 214.86791,167.97579 225.48561,144.22372 246.93551,148.87873 C 257.42104,149.67278 270.65218,155.22101 263.60925,170.45861 C 242.65503,180.13389 236.41826,197.78511 220.96681,209.34493 C 208.75081,225.63782 199.41313,245.73169 180.08046,254.96632 C 168.5305,260.58598 155.61581,271.06227 159.46703,285.46537 C 163.81526,302.83559 145.26883,301.48405 134.16765,305.075 C 124.82793,306.37898 115.53581,305.62481 106.27465,304.28886 C 97.013492,302.9529 87.783287,301.03516 78.567389,300.01198 C 60.403329,292.95427 80.076399,271.2916 66.548699,260.89913 C 54.058629,250.28831 46.740169,233.10105 44.662149,217.27493 C 41.159419,201.65288 43.253559,187.8889 46.175509,172.2701 C 45.820579,152.18293 28.624989,137.40605 20.783949,121.39782 C 12.331184,105.60719 1.8726552,88.953055 5.2691996,72.694558 C 13.899079,57.256918 28.393725,72.589302 35.345795,81.990552 C 44.412135,94.673242 57.054439,117.22761 71.388049,131.97772 C 84.893279,135.8026 72.463829,117.0155 70.714059,108.55962 C 63.339543,84.702532 57.678489,65.903928 55.192939,46.063408 C 54.432139,30.181408 71.480609,18.169858 80.656439,34.307338 C 88.993565,54.437748 92.210335,77.110478 99.695385,99.221193 C 103.80077,107.55448 103.79039,119.75478 113.35538,122.45524 C 124.29964,123.96397 118.01258,84.810088 115.93524,65.165308 C 114.06143,49.440538 107.65961,15.700488 122.27625,5.4471909 C 140.86642,-2.6608651 146.49028,16.275868 148.23513,40.771738 C 149.76238,60.962948 150.09066,80.549668 150.30593,98.388908 C 152.16583,111.0501 152.89182,131.73698 161.92993,114.29675 C 166.50619,102.30624 169.5236,87.357158 175.25437,68.885248 C 179.53377,46.618638 186.29739,35.341908 200.20226,43.927318 C 211.91729,55.713348 204.24927,77.777708 200.42034,93.052488 C 196.02693,112.4188 188.86438,132.50474 184.63462,150.45798 C 183.29467,160.27456 183.0596,171.03998 188.53624,179.74432"
       id="path4187"
       sodipodi:nodetypes="ccccccccsccccccccccccccccccccccc" />
  </g>
</svg>
